<?xml version="1.0" encoding="UTF-8"?>
<svg width="12px" height="20px" viewBox="0 0 12 20" version="1.1" xmlns="http://www.w3.org/2000/svg" xmlns:xlink="http://www.w3.org/1999/xlink">
    <!-- Generator: Sketch 46.2 (44496) - http://www.bohemiancoding.com/sketch -->
    <title>Shape</title>
    <desc>Created with Sketch.</desc>
    <defs></defs>
    <g id="Page-1" stroke="none" stroke-width="1" fill="none" fill-rule="evenodd">
        <g id="Explore-Videos" transform="translate(-345.000000, -342.000000)" fill="#FFFFFF">
            <g id="Video" transform="translate(0.000000, 336.000000)">
                <path d="M355.743436,6 L345.815137,6 C345.364873,6 345,6.36487347 345,6.8151371 L345,8.6430285 L345,21.0902018 L345,25.3995581 C345,25.7313599 345.268911,26 345.600713,26 C345.759295,26 345.902425,25.9373806 346.009772,25.8368099 L346.013568,25.8368099 L350.376327,21.4740509 L350.385814,21.4740509 C350.482048,21.3618238 350.62328,21.2891744 350.782946,21.2891744 C350.942612,21.2891744 351.083574,21.3618238 351.180078,21.4740509 L351.189566,21.4740509 L355.504615,25.7890999 C355.614674,25.9170496 355.775966,25.9997289 355.958132,25.9997289 C356.289933,25.9997289 356.558845,25.7308177 356.558845,25.3992871 L356.558845,21.0899307 L356.558845,8.6430285 L356.558845,6.8151371 C356.558845,6.36487347 356.1937,6 355.743436,6 L355.743436,6 Z" id="Shape"></path>
            </g>
        </g>
    </g>
</svg>