<?xml version="1.0" encoding="UTF-8"?>
<svg width="180px" height="27px" viewBox="0 0 180 27" version="1.1" xmlns="http://www.w3.org/2000/svg" xmlns:xlink="http://www.w3.org/1999/xlink">
    <!-- Generator: Sketch 46.2 (44496) - http://www.bohemiancoding.com/sketch -->
    <title>PLAYBERG</title>
    <desc>Created with Sketch.</desc>
    <defs>
        <linearGradient x1="55.737102%" y1="0%" x2="55.737102%" y2="100%" id="linearGradient-1">
            <stop stop-color="#FF9D32" offset="0%"></stop>
            <stop stop-color="#FF5C00" offset="100%"></stop>
        </linearGradient>
    </defs>
    <g id="Page-1" stroke="none" stroke-width="1" fill="none" fill-rule="evenodd">
        <g id="Sign-Up-Screen" transform="translate(-98.000000, -66.000000)" fill="url(#linearGradient-1)">
            <path d="M100.5896,92.0170898 C99.928789,92.0170898 99.3534367,91.783531 98.8635254,91.3164062 C98.3736141,90.8492815 98.1286621,90.2340533 98.1286621,89.4707031 L98.1286621,70.347168 C98.1286621,69.4812782 98.362221,68.763512 98.8293457,68.1938477 C99.2964704,67.6241833 99.9515746,67.3393555 100.794678,67.3393555 L108.143311,67.3393555 C109.556078,67.3393555 110.795079,67.467528 111.860352,67.723877 C112.925624,67.9802259 113.865556,68.390378 114.680176,68.9543457 C115.494796,69.5183134 116.112872,70.2873486 116.534424,71.2614746 C116.955975,72.2356006 117.166748,73.4005466 117.166748,74.7563477 C117.166748,79.7238204 114.050731,82.2075195 107.818604,82.2075195 L103.050537,82.2075195 L103.050537,89.4707031 C103.050537,90.2340533 102.808433,90.8492815 102.324219,91.3164062 C101.840004,91.783531 101.261803,92.0170898 100.5896,92.0170898 Z M103.050537,78.652832 L107.493896,78.652832 C108.325606,78.652832 109.017738,78.5958665 109.570312,78.4819336 C110.122887,78.3680007 110.618487,78.1714695 111.057129,77.892334 C111.49577,77.6131985 111.817626,77.2172877 112.022705,76.7045898 C112.227784,76.191892 112.330322,75.5424844 112.330322,74.7563477 C112.330322,73.9929975 112.227784,73.3606796 112.022705,72.859375 C111.817626,72.3580704 111.49577,71.9820976 111.057129,71.7314453 C110.618487,71.480793 110.13428,71.3098963 109.604492,71.21875 C109.074704,71.1276037 108.411055,71.0820312 107.613525,71.0820312 L103.050537,71.0820312 L103.050537,78.652832 Z M123.148193,92 L135.213623,92 C135.771894,92 136.219074,91.806317 136.555176,91.4189453 C136.891278,91.0315736 137.059326,90.5815455 137.059326,90.0688477 C137.059326,89.5447565 136.891278,89.0861836 136.555176,88.6931152 C136.219074,88.3000469 135.771894,88.1035156 135.213623,88.1035156 L125.574951,88.1035156 L125.557861,69.9199219 C125.557861,69.1565717 125.318606,68.5413435 124.840088,68.0742188 C124.36157,67.607094 123.791914,67.3735352 123.131104,67.3735352 C122.4589,67.3735352 121.877851,67.607094 121.387939,68.0742188 C120.898028,68.5413435 120.653076,69.1565717 120.653076,69.9199219 L120.653076,89.0092773 C120.653076,89.8295939 120.886635,90.5331188 121.35376,91.119873 C121.820884,91.7066273 122.419023,92 123.148193,92 Z M154.080811,83.027832 L149.859619,71.765625 L145.638428,83.027832 L154.080811,83.027832 Z M156.849365,90.4277344 L155.311279,86.3261719 L144.407959,86.3261719 L142.869873,90.4277344 C142.676187,90.9860054 142.379966,91.4047024 141.981201,91.6838379 C141.582436,91.9629734 141.138105,92.1025391 140.648193,92.1025391 C140.032956,92.1025391 139.486086,91.897463 139.007568,91.4873047 C138.52905,91.0771464 138.289795,90.5587596 138.289795,89.9321289 C138.289795,89.6472968 138.34676,89.3567723 138.460693,89.0605469 L145.963135,70.2788086 C146.441653,69.0141538 146.991371,68.1653667 147.612305,67.7324219 C148.233239,67.299477 148.982336,67.0830078 149.859619,67.0830078 C150.736902,67.0830078 151.485999,67.299477 152.106934,67.7324219 C152.727868,68.1653667 153.277585,69.0141538 153.756104,70.2788086 L161.258545,89.0605469 C161.372478,89.3567723 161.429443,89.6472968 161.429443,89.9321289 C161.429443,90.5587596 161.190188,91.0771464 160.71167,91.4873047 C160.233152,91.897463 159.686282,92.1025391 159.071045,92.1025391 C158.581134,92.1025391 158.136802,91.9629734 157.738037,91.6838379 C157.339272,91.4047024 157.043051,90.9860054 156.849365,90.4277344 Z M171.016846,89.5048828 C171.016846,90.2910196 171.258949,90.9033995 171.743164,91.342041 C172.227379,91.7806825 172.805579,92 173.477783,92 C174.149987,92 174.725339,91.7806825 175.203857,91.342041 C175.682375,90.9033995 175.921631,90.2910196 175.921631,89.5048828 L175.921631,82.0366211 L183.150635,70.5180664 C183.401287,70.0965148 183.526611,69.6920592 183.526611,69.3046875 C183.526611,68.7692031 183.321535,68.319175 182.911377,67.9545898 C182.501219,67.5900047 182.028404,67.4077148 181.49292,67.4077148 C180.66121,67.4077148 180.023196,67.8064739 179.578857,68.6040039 L173.717041,78.2597656 L168.077393,68.8603516 C167.530515,67.8919222 166.807052,67.4077148 165.906982,67.4077148 C165.280352,67.4077148 164.730634,67.6355771 164.257812,68.0913086 C163.784991,68.54704 163.548584,69.088213 163.548584,69.7148438 C163.548584,70.1363953 163.662515,70.5408509 163.890381,70.9282227 L171.016846,82.1904297 L171.016846,89.5048828 Z M190.140381,92 C189.354244,92 188.730471,91.7635929 188.269043,91.2907715 C187.807615,90.8179501 187.576904,90.1087287 187.576904,89.1630859 L187.576904,69.7832031 C187.576904,69.0540328 187.824705,68.4672874 188.320312,68.0229492 C188.81592,67.5786111 189.422604,67.3564453 190.140381,67.3564453 L197.061768,67.3564453 C202.917917,67.3564453 205.845947,69.3844198 205.845947,73.4404297 C205.845947,74.9557367 205.458581,76.214676 204.683838,77.2172852 C203.909094,78.2198943 202.769783,78.8579088 201.265869,79.1313477 L201.265869,79.199707 C203.020435,79.4503593 204.396154,80.0997669 205.393066,81.1479492 C206.389979,82.1961315 206.888428,83.5974847 206.888428,85.3520508 C206.888428,86.2065472 206.697593,87.0240033 206.315918,87.8044434 C205.934243,88.5848835 205.384525,89.2912566 204.666748,89.923584 C203.948971,90.5559114 203.011887,91.0600567 201.855469,91.4360352 C200.69905,91.8120136 199.40878,92 197.984619,92 L190.140381,92 Z M192.43042,88.394043 L196.77124,88.394043 C197.67131,88.394043 198.406166,88.3513188 198.97583,88.2658691 C199.545494,88.1804195 200.063881,88.0095228 200.531006,87.7531738 C200.998131,87.4968249 201.337076,87.1265486 201.547852,86.642334 C201.758627,86.1581193 201.864014,85.5343463 201.864014,84.7709961 C201.864014,84.1329721 201.772869,83.5917991 201.590576,83.1474609 C201.408284,82.7031228 201.160483,82.3470879 200.847168,82.0793457 C200.533853,81.8116035 200.106611,81.6036791 199.56543,81.4555664 C199.024249,81.3074537 198.463138,81.2077639 197.88208,81.1564941 C197.301022,81.1052244 196.583256,81.0795898 195.72876,81.0795898 L192.43042,81.0795898 L192.43042,88.394043 Z M192.43042,77.7128906 L196.224365,77.7128906 C197.990325,77.7128906 199.249264,77.4423041 200.001221,76.901123 C200.753178,76.359942 201.12915,75.4057686 201.12915,74.0385742 C201.12915,73.5030898 201.057943,73.0473652 200.915527,72.6713867 C200.773111,72.2954083 200.582277,71.996339 200.343018,71.7741699 C200.103759,71.5520008 199.784751,71.3782558 199.385986,71.2529297 C198.987221,71.1276035 198.582766,71.0450035 198.172607,71.005127 C197.762449,70.9652505 197.261152,70.9453125 196.668701,70.9453125 L192.43042,70.9453125 L192.43042,77.7128906 Z M213.741455,92 L226.405029,92 C226.951907,92 227.387694,91.8091653 227.712402,91.4274902 C228.037111,91.0458151 228.199463,90.5986354 228.199463,90.0859375 C228.199463,89.5732396 228.037111,89.1232116 227.712402,88.7358398 C227.387694,88.3484681 226.951907,88.1547852 226.405029,88.1547852 L216.202393,88.1547852 L216.202393,81.3017578 L225.345459,81.3017578 C225.90373,81.3017578 226.35091,81.1137714 226.687012,80.737793 C227.023114,80.3618145 227.191162,79.917483 227.191162,79.4047852 C227.191162,78.8920873 227.025962,78.4477558 226.695557,78.0717773 C226.365151,77.6957989 225.915123,77.5078125 225.345459,77.5078125 L216.202393,77.5078125 L216.202393,71.21875 L226.011963,71.21875 C226.570234,71.21875 227.014565,71.025067 227.344971,70.6376953 C227.675376,70.2503236 227.840576,69.8002955 227.840576,69.2875977 C227.840576,68.7748998 227.675376,68.3248717 227.344971,67.9375 C227.014565,67.5501283 226.570234,67.3564453 226.011963,67.3564453 L213.861084,67.3564453 C213.052161,67.3564453 212.428388,67.6270318 211.989746,68.1682129 C211.551105,68.709394 211.331787,69.4015257 211.331787,70.2446289 L211.331787,89.2485352 C211.331787,89.9663122 211.565346,90.6043266 212.032471,91.1625977 C212.499595,91.7208687 213.069251,92 213.741455,92 Z M235.240479,91.9829102 C234.568275,91.9829102 233.992922,91.7578961 233.514404,91.3078613 C233.035886,90.8578265 232.796631,90.23975 232.796631,89.4536133 L232.796631,69.8515625 C232.796631,69.1223922 233.050128,68.5214054 233.557129,68.048584 C234.06413,67.5757626 234.67651,67.3393555 235.394287,67.3393555 L242.930908,67.3393555 C248.93517,67.3393555 251.937256,69.4299921 251.937256,73.6113281 C251.937256,75.0696688 251.475835,76.3029735 250.552979,77.3112793 C249.630122,78.3195851 248.240162,78.971841 246.383057,79.2680664 L246.383057,79.3364258 C247.966723,79.6440445 249.148759,80.2678176 249.929199,81.2077637 C250.709639,82.1477098 251.190998,83.426587 251.373291,85.0444336 L251.851807,89.0776367 C251.8632,89.1801763 251.868896,89.3282868 251.868896,89.5219727 C251.868896,90.2967161 251.649579,90.9005512 251.210938,91.3334961 C250.772296,91.766441 250.222578,91.9829102 249.561768,91.9829102 C248.87817,91.9829102 248.291425,91.7692892 247.801514,91.342041 C247.311602,90.9147928 247.026774,90.2853232 246.947021,89.4536133 L246.519775,85.5058594 C246.440022,84.7425092 246.326091,84.1215844 246.177979,83.6430664 C246.029866,83.1645484 245.796307,82.751548 245.477295,82.4040527 C245.158283,82.0565575 244.739586,81.8087573 244.221191,81.6606445 C243.702797,81.5125318 243.044844,81.4384766 242.247314,81.4384766 L237.701416,81.4384766 L237.701416,89.4536133 C237.701416,90.2511433 237.459312,90.8720681 236.975098,91.3164062 C236.490883,91.7607444 235.912682,91.9829102 235.240479,91.9829102 Z M237.684326,77.7983398 L241.187744,77.7983398 C241.666262,77.7983398 242.067869,77.7926433 242.392578,77.78125 C242.717287,77.7698567 243.098956,77.7385256 243.537598,77.6872559 C243.976239,77.6359861 244.346515,77.5647791 244.648438,77.4736328 C244.95036,77.3824865 245.26367,77.2514657 245.588379,77.0805664 C245.913088,76.9096671 246.172281,76.704591 246.365967,76.465332 C246.559653,76.226073 246.719156,75.9241555 246.844482,75.5595703 C246.969809,75.1949852 247.032471,74.7791365 247.032471,74.3120117 C247.032471,73.8676736 246.981202,73.4717628 246.878662,73.1242676 C246.776123,72.7767724 246.64795,72.4890962 246.494141,72.2612305 C246.340331,72.0333647 246.12671,71.8396818 245.853271,71.6801758 C245.579833,71.5206698 245.326336,71.3981938 245.092773,71.3127441 C244.859211,71.2272945 244.554445,71.1646324 244.178467,71.1247559 C243.802488,71.0848794 243.483481,71.0592448 243.221436,71.0478516 C242.95939,71.0364583 242.623293,71.0307617 242.213135,71.0307617 L237.684326,71.0307617 L237.684326,77.7983398 Z M268.446045,92.4443359 C270.166431,92.4443359 272.553289,92.108239 275.606689,91.4360352 C276.461186,91.230956 277.067869,90.8891625 277.426758,90.4106445 C277.785646,89.9321265 277.965088,89.1744844 277.965088,88.1376953 L277.965088,80.9599609 C277.965088,79.4218673 277.344163,78.652832 276.102295,78.652832 L269.488525,78.652832 C268.987221,78.652832 268.597007,78.8322736 268.317871,79.1911621 C268.038736,79.5500506 267.89917,79.9573545 267.89917,80.4130859 C267.89917,80.9029972 268.04728,81.3159977 268.343506,81.6520996 C268.639731,81.9882016 269.044187,82.15625 269.556885,82.15625 L273.128662,82.15625 L273.128662,87.9838867 C271.624748,88.3370786 270.143643,88.5136719 268.685303,88.5136719 C263.660864,88.5136719 261.148682,85.5229791 261.148682,79.5415039 C261.148682,78.1629163 261.291096,76.9381564 261.575928,75.8671875 C261.86076,74.7962186 262.305091,73.8591349 262.908936,73.0559082 C263.51278,72.2526815 264.315994,71.6374533 265.318604,71.2102051 C266.321213,70.7829568 267.5004,70.5693359 268.856201,70.5693359 C270.462655,70.5693359 272.450753,70.9339156 274.820557,71.6630859 C274.991456,71.7542322 275.185139,71.7998047 275.401611,71.7998047 C275.902916,71.7998047 276.313068,71.5975769 276.63208,71.1931152 C276.951092,70.7886536 277.110596,70.3300807 277.110596,69.8173828 C277.110596,69.4983708 277.019451,69.1879084 276.837158,68.8859863 C276.654866,68.5840642 276.387127,68.3419605 276.033936,68.159668 C273.937571,67.1570588 271.482355,66.6557617 268.668213,66.6557617 C266.583242,66.6557617 264.720467,66.9918586 263.079834,67.6640625 C261.439201,68.3362664 260.106206,69.2648053 259.080811,70.449707 C258.055415,71.6346088 257.280683,72.9960861 256.756592,74.5341797 C256.232501,76.0722733 255.970459,77.7470613 255.970459,79.5585938 C255.970459,82.3271623 256.488846,84.6855371 257.525635,86.6337891 C258.562424,88.582041 260.009349,90.0375115 261.866455,91.0002441 C263.723561,91.9629768 265.916735,92.4443359 268.446045,92.4443359 Z" id="PLAYBERG"></path>
        </g>
    </g>
</svg>