<?xml version="1.0" encoding="UTF-8"?>
<svg width="20px" height="20px" viewBox="0 0 20 20" version="1.1" xmlns="http://www.w3.org/2000/svg" xmlns:xlink="http://www.w3.org/1999/xlink">
    <!-- Generator: Sketch 46.2 (44496) - http://www.bohemiancoding.com/sketch -->
    <title>Shape</title>
    <desc>Created with Sketch.</desc>
    <defs></defs>
    <g id="Page-1" stroke="none" stroke-width="1" fill="none" fill-rule="evenodd">
        <g id="Player" transform="translate(-259.000000, -839.000000)" fill-rule="nonzero" fill="#FFFFFF">
            <g id="Menu" transform="translate(0.000000, 824.000000)">
                <path d="M267.156278,15 C262.664191,15 259,18.6641673 259,23.1562757 C259,27.6484024 262.664191,31.3125671 267.156278,31.3125671 C269.023071,31.3125671 270.745127,30.6808554 272.122393,29.6188271 L277.195376,34.6918365 C277.606324,35.1027847 278.280799,35.102811 278.691826,34.6918365 C279.102774,34.2808621 279.102774,33.6145977 278.691826,33.2036232 L273.61058,28.1306138 C274.674898,26.7525586 275.312557,25.0252397 275.312557,23.1562757 C275.312557,18.6641673 271.648366,15 267.156278,15 L267.156278,15 Z M267.156278,17.1048434 C270.510785,17.1048434 273.207711,19.80173 273.207711,23.1562757 C273.207711,26.510795 270.510785,29.2077211 267.156278,29.2077211 C263.801746,29.2077211 261.104846,26.510795 261.104846,23.1562757 C261.104846,19.80173 263.801746,17.1048434 267.156278,17.1048434 Z" id="Shape"></path>
            </g>
        </g>
    </g>
</svg>