<?xml version="1.0" encoding="UTF-8"?>
<svg width="15px" height="17px" viewBox="0 0 15 17" version="1.1" xmlns="http://www.w3.org/2000/svg" xmlns:xlink="http://www.w3.org/1999/xlink">
    <!-- Generator: Sketch 46.2 (44496) - http://www.bohemiancoding.com/sketch -->
    <title>Icon</title>
    <desc>Created with Sketch.</desc>
    <defs></defs>
    <g id="Page-1" stroke="none" stroke-width="1" fill="none" fill-rule="evenodd">
        <g id="Player" transform="translate(-207.000000, -390.000000)" fill="#FFFFFF">
            <g id="Group-4" transform="translate(207.000000, 390.000000)">
                <path d="M12.5,11.7333333 C11.8666667,11.7333333 11.3,11.9833333 10.8666667,12.375 L4.925,8.91666667 C4.96666667,8.725 5,8.53333333 5,8.33333333 C5,8.13333333 4.96666667,7.94166667 4.925,7.75 L10.8,4.325 C11.25,4.74166667 11.8416667,5 12.5,5 C13.8833333,5 15,3.88333333 15,2.5 C15,1.11666667 13.8833333,0 12.5,0 C11.1166667,0 10,1.11666667 10,2.5 C10,2.7 10.0333333,2.89166667 10.075,3.08333333 L4.2,6.50833333 C3.75,6.09166667 3.15833333,5.83333333 2.5,5.83333333 C1.11666667,5.83333333 0,6.95 0,8.33333333 C0,9.71666667 1.11666667,10.8333333 2.5,10.8333333 C3.15833333,10.8333333 3.75,10.575 4.2,10.1583333 L10.1333333,13.625 C10.0916667,13.8 10.0666667,13.9833333 10.0666667,14.1666667 C10.0666667,15.5083333 11.1583333,16.6 12.5,16.6 C13.8416667,16.6 14.9333333,15.5083333 14.9333333,14.1666667 C14.9333333,12.825 13.8416667,11.7333333 12.5,11.7333333 L12.5,11.7333333 Z" id="Icon"></path>
            </g>
        </g>
    </g>
</svg>