<?xml version="1.0" encoding="UTF-8"?>
<svg width="16px" height="20px" viewBox="0 0 16 20" version="1.1" xmlns="http://www.w3.org/2000/svg" xmlns:xlink="http://www.w3.org/1999/xlink">
    <!-- Generator: Sketch 46.2 (44496) - http://www.bohemiancoding.com/sketch -->
    <title>Shape</title>
    <desc>Created with Sketch.</desc>
    <defs></defs>
    <g id="Page-1" stroke="none" stroke-width="1" fill="none" fill-rule="evenodd">
        <g id="Search-I" transform="translate(-99.000000, -632.000000)" fill="#FFFFFF">
            <g id="Menu" transform="translate(-1.000000, 617.000000)">
                <path d="M109.765315,15.001 C109.616866,15.0085265 109.474461,15.0621714 109.357943,15.1544603 C109.357943,15.1544603 107.992915,16.2303394 106.947179,17.8930875 C105.901444,19.5558356 105.144643,21.9755277 106.5412,24.3510761 C107.167112,25.4148835 107.077853,26.1278265 106.813248,26.5804786 C106.548643,27.0331307 106.044947,27.2639925 105.575794,27.2054913 C105.133578,27.1504545 104.734206,27.0048015 104.388556,26.5386278 C104.042885,26.072454 103.734243,25.2032434 103.76215,23.6353544 C103.766142,23.3988913 103.652847,23.1757787 103.459572,23.0394858 C103.266298,22.9031928 103.018098,22.8713865 102.796702,22.9545405 C102.796702,22.9545405 102.15821,23.2129315 101.623392,23.8837023 C101.088596,24.5544588 100.6008,25.6622385 100.6008,27.3212723 C100.6008,31.5792875 103.897296,35 108.170954,35 C110.943654,35 113.303416,33.5033981 114.613585,31.3462113 C115.026708,30.6662546 115.320728,29.7003207 115.387887,28.5992268 C115.455031,27.498133 115.277906,26.2610364 114.613585,25.1644426 C113.977251,24.1133498 113.195342,23.4776226 112.506971,22.865253 C111.818593,22.2529405 111.207659,21.6666572 110.680791,20.6177072 C109.762558,18.7900986 110.489659,15.9091828 110.489659,15.9091828 C110.552484,15.6875322 110.504558,15.4491875 110.360942,15.2690475 C110.217326,15.0889075 109.995649,14.9890855 109.765572,15.00095 L109.765315,15.001 Z M108.785938,17.8693441 C108.74663,18.9123654 108.836425,20.1298902 109.403979,21.2594846 C110.038549,22.522796 110.83908,23.2943117 111.556666,23.932539 C112.274181,24.5707877 112.891122,25.0777766 113.391275,25.9038648 C113.864127,26.6844522 114.01563,27.6299 113.961879,28.5113465 C113.908128,29.392793 113.633137,30.2096668 113.392668,30.6053891 C112.322789,32.3668535 110.432393,33.5713781 108.170776,33.5713781 C104.646847,33.5713781 102.029436,30.8562514 102.029436,27.3212508 C102.029436,26.2923727 102.248262,25.6947177 102.491217,25.2453514 C102.632999,26.122655 102.859096,26.8735274 103.241804,27.3896808 C103.843295,28.2008402 104.692976,28.5365613 105.398634,28.6243488 C106.441655,28.7544229 107.494033,28.2470125 108.046545,27.3017504 C108.599099,26.3565169 108.587934,25.0118467 107.773103,23.6270328 C106.696724,21.7961384 107.261707,20.078032 108.156761,18.6548601 C108.360622,18.3307107 108.56867,18.1394782 108.78596,17.8694156 L108.785938,17.8693441 Z" id="Shape"></path>
            </g>
        </g>
    </g>
</svg>