<?xml version="1.0" encoding="UTF-8"?>
<svg width="14px" height="13px" viewBox="0 0 14 13" version="1.1" xmlns="http://www.w3.org/2000/svg" xmlns:xlink="http://www.w3.org/1999/xlink">
    <!-- Generator: Sketch 46.2 (44496) - http://www.bohemiancoding.com/sketch -->
    <title>Icon</title>
    <desc>Created with Sketch.</desc>
    <defs></defs>
    <g id="Page-1" stroke="none" stroke-width="1" fill="none" fill-rule="evenodd">
        <g id="Explore-Videos" transform="translate(-16.000000, -39.000000)" fill="#FFFFFF">
            <g id="Group-2">
                <path d="M23,44.6 C22.23,44.6 21.6,45.23 21.6,46 C21.6,46.77 22.23,47.4 23,47.4 C23.77,47.4 24.4,46.77 24.4,46 C24.4,45.23 23.77,44.6 23,44.6 L23,44.6 Z M27.2,46 C27.2,43.683 25.317,41.8 23,41.8 C20.683,41.8 18.8,43.683 18.8,46 C18.8,47.554 19.647,48.905 20.9,49.633 L21.6,48.415 C20.767,47.925 20.2,47.036 20.2,46 C20.2,44.453 21.453,43.2 23,43.2 C24.547,43.2 25.8,44.453 25.8,46 C25.8,47.036 25.233,47.925 24.4,48.415 L25.1,49.633 C26.353,48.905 27.2,47.554 27.2,46 L27.2,46 Z M23,39 C19.136,39 16,42.136 16,46 C16,48.59 17.407,50.844 19.493,52.055 L20.193,50.844 C18.527,49.871 17.4,48.072 17.4,46 C17.4,42.906 19.906,40.4 23,40.4 C26.094,40.4 28.6,42.906 28.6,46 C28.6,48.072 27.473,49.871 25.8,50.844 L26.5,52.055 C28.593,50.844 30,48.59 30,46 C30,42.136 26.864,39 23,39 L23,39 Z" id="Icon"></path>
            </g>
        </g>
    </g>
</svg>