<?xml version="1.0" encoding="UTF-8"?>
<svg width="20px" height="20px" viewBox="0 0 20 20" version="1.1" xmlns="http://www.w3.org/2000/svg" xmlns:xlink="http://www.w3.org/1999/xlink">
    <!-- Generator: Sketch 46.2 (44496) - http://www.bohemiancoding.com/sketch -->
    <title>Shape</title>
    <desc>Created with Sketch.</desc>
    <defs></defs>
    <g id="Page-1" stroke="none" stroke-width="1" fill="none" fill-rule="evenodd">
        <g id="Player" transform="translate(-326.000000, -839.000000)" fill-rule="nonzero" fill="#FFFFFF">
            <g id="Menu" transform="translate(0.000000, 824.000000)">
                <path d="M344.93783,35 L327.373284,35 C327.05942,35 326.805102,34.7456818 326.805102,34.4318182 L326.805102,32.9768182 C326.805102,28.4645455 330.29192,25.5490909 335.68783,25.5490909 L336.623057,25.5490909 C341.585784,25.5490909 344.966466,28.0063636 345.445784,31.9615909 C345.483739,32.2731818 345.261693,32.5561364 344.950102,32.5938636 C344.637148,32.6302273 344.35533,32.4097727 344.31783,32.0981818 C343.833966,28.1072727 340.025557,26.6854545 336.623057,26.6854545 L335.68783,26.6854545 C331.94283,26.6854545 327.941466,28.3381818 327.941466,32.9768182 L327.941466,33.8636364 L344.36942,33.8636364 L344.36942,33.7122727 C344.36942,33.3984091 344.623739,33.1440909 344.937602,33.1440909 C345.251466,33.1440909 345.505784,33.3984091 345.505784,33.7122727 L345.505784,34.4318182 C345.506011,34.7456818 345.251466,35 344.93783,35 Z M336.155557,24.7109091 C333.779193,24.7109091 331.845784,22.7775 331.845784,20.4011364 L331.845784,19.3097727 C331.845784,16.9334091 333.779193,15 336.155557,15 C338.53192,15 340.46533,16.9334091 340.46533,19.3097727 L340.46533,20.4011364 C340.46533,22.7775 338.53192,24.7109091 336.155557,24.7109091 Z M336.155557,16.1363636 C334.405784,16.1363636 332.982148,17.56 332.982148,19.3097727 L332.982148,20.4011364 C332.982148,22.1509091 334.405784,23.5745455 336.155557,23.5745455 C337.90533,23.5745455 339.328966,22.1509091 339.328966,20.4011364 L339.328966,19.3097727 C339.328966,17.56 337.90533,16.1363636 336.155557,16.1363636 Z" id="Shape"></path>
            </g>
        </g>
    </g>
</svg>