<?xml version="1.0" encoding="UTF-8"?>
<svg width="18px" height="12px" viewBox="0 0 18 12" version="1.1" xmlns="http://www.w3.org/2000/svg" xmlns:xlink="http://www.w3.org/1999/xlink">
    <!-- Generator: Sketch 46.2 (44496) - http://www.bohemiancoding.com/sketch -->
    <title>Shape</title>
    <desc>Created with Sketch.</desc>
    <defs></defs>
    <g id="Page-1" stroke="none" stroke-width="1" fill="none" fill-rule="evenodd">
        <g id="Explore-Videos" transform="translate(-11.000000, -566.000000)" fill="#FFFFFF">
            <g id="Video" transform="translate(0.000000, 462.000000)">
                <path d="M28.4375,114.126406 L24.5,111.501781 L24.5,112.999719 C24.5,114.243125 23.4925625,115.251125 22.25,115.251125 L13.25,115.251125 C12.0074375,115.251125 11,114.243125 11,112.999719 L11,106.250563 C11,105.008 12.0074375,104 13.25,104 L22.25,104 C23.4925625,104 24.5,105.008 24.5,106.250563 L24.5,107.751313 L28.4375,105.126688 C28.748,105.126688 29,105.378406 29,105.688625 L29,113.563625 C29,113.874688 28.7477188,114.126406 28.4375,114.126406 L28.4375,114.126406 Z M23.375,106.250281 C23.375,105.628719 22.8712813,105.125281 22.25,105.125281 L13.25,105.125281 C12.629,105.125281 12.125,105.629 12.125,106.250281 L12.125,112.999438 C12.125,113.621 12.629,114.124719 13.25,114.124719 L22.25,114.124719 C22.8712813,114.124719 23.375,113.621 23.375,112.999438 L23.375,106.250281 L23.375,106.250281 Z M27.875,106.853281 L24.5,109.103281 L24.5,110.149813 L27.875,112.39925 L27.875,106.853281 L27.875,106.853281 Z" id="Shape"></path>
            </g>
        </g>
    </g>
</svg>