<?xml version="1.0" encoding="UTF-8"?>
<svg width="20px" height="20px" viewBox="0 0 20 20" version="1.1" xmlns="http://www.w3.org/2000/svg" xmlns:xlink="http://www.w3.org/1999/xlink">
    <!-- Generator: Sketch 46.2 (44496) - http://www.bohemiancoding.com/sketch -->
    <title>Shape</title>
    <desc>Created with Sketch.</desc>
    <defs></defs>
    <g id="Page-1" stroke="none" stroke-width="1" fill="none" fill-rule="evenodd">
        <g id="Explore-Videos" transform="translate(-21.000000, -633.000000)" fill="#FFFFFF">
            <g id="Menu" transform="translate(0.000000, 617.000000)">
                <path d="M39.750586,36 L37.2505078,36 L36.0004688,36 L26.0001563,36 L24.7501172,36 L22.2500391,36 C21.559705,36 21,35.4399825 21,34.7499609 L21,32.2501953 L21,30.9998437 L21,28.4997656 L21,27.2503516 L21,24.7496484 L21,23.4996094 L21,20.9998437 L21,19.7498047 L21,17.2500391 C21,16.5600175 21.559705,16 22.2500391,16 L24.7501172,16 L26.0001563,16 L36.0004688,16 L37.2505078,16 L39.750586,16 C40.44092,16 41.000625,16.5600175 41.000625,17.2500391 L41.000625,19.7498047 L41.000625,20.9998437 L41.000625,23.4996094 L41.000625,24.7496484 L41.000625,27.2503516 L41.000625,28.4997656 L41.000625,30.9998437 L41.000625,32.2501953 L41.000625,34.7499609 C41.000625,35.440295 40.4406075,36 39.750586,36 L39.750586,36 Z M26.0001563,28.4997656 L26.0001563,30.9998437 L26.0001563,32.2501953 L26.0001563,34.7499609 L36.0004688,34.7499609 L36.0004688,32.2501953 L36.0004688,30.9998437 L36.0004688,28.4997656 L36.0004688,27.2503516 L26.0001563,27.2503516 L26.0001563,28.4997656 L26.0001563,28.4997656 Z M22.2497266,34.1255664 C22.2497266,34.4702647 22.5297353,34.7499609 22.8747461,34.7499609 L24.7498047,34.7499609 L24.7498047,32.2501953 L22.2497266,32.2501953 L22.2497266,34.1255664 L22.2497266,34.1255664 Z M22.2497266,30.9998437 L24.7498047,30.9998437 L24.7498047,28.4997656 L22.2497266,28.4997656 L22.2497266,30.9998437 L22.2497266,30.9998437 Z M24.7501172,17.2500391 L22.8750586,17.2500391 C22.5300478,17.2500391 22.2500391,17.5297353 22.2500391,17.8753711 L22.2500391,19.7498047 L24.7501172,19.7498047 L24.7501172,17.2500391 L24.7501172,17.2500391 Z M24.7501172,20.9998437 L22.2500391,20.9998437 L22.2500391,23.4996094 L24.7501172,23.4996094 L24.7501172,20.9998437 L24.7501172,20.9998437 Z M24.7501172,24.7496484 L22.2500391,24.7496484 L22.2500391,27.2503516 L24.7501172,27.2503516 L24.7501172,26 L24.7501172,24.7496484 L24.7501172,24.7496484 Z M36.0001563,23.4996094 L36.0001563,20.9998437 L36.0001563,19.7498047 L36.0001563,17.2500391 L25.9998437,17.2500391 L25.9998437,19.7498047 L25.9998437,20.9998437 L25.9998437,23.4996094 L25.9998437,24.7496484 L25.9998437,26 L36.0001563,26 L36.0001563,24.7496484 L36.0001563,23.4996094 L36.0001563,23.4996094 Z M39.750586,17.8753711 C39.750586,17.5294228 39.4705772,17.2500391 39.1255664,17.2500391 L37.2505078,17.2500391 L37.2505078,19.7498047 L39.750586,19.7498047 L39.750586,17.8753711 L39.750586,17.8753711 Z M39.750586,20.9998437 L37.2505078,20.9998437 L37.2505078,23.4996094 L39.750586,23.4996094 L39.750586,20.9998437 L39.750586,20.9998437 Z M39.750586,24.7496484 L37.2505078,24.7496484 L37.2505078,26 L37.2505078,27.2503516 L39.750586,27.2503516 L39.750586,24.7496484 L39.750586,24.7496484 Z M39.750586,28.4997656 L37.2505078,28.4997656 L37.2505078,30.9998437 L39.750586,30.9998437 L39.750586,28.4997656 L39.750586,28.4997656 Z M39.750586,32.2501953 L37.2505078,32.2501953 L37.2505078,34.7499609 L39.1255664,34.7499609 C39.4708897,34.7499609 39.750586,34.4702647 39.750586,34.1255664 L39.750586,32.2501953 L39.750586,32.2501953 Z" id="Shape"></path>
            </g>
        </g>
    </g>
</svg>