<svg id="video" xmlns="http://www.w3.org/2000/svg" fill="#FFF" width="20" height="20" viewBox="0 0 20 20">
    <path d="M18.8 20L16.3 20 15 20 5 20 3.8 20 1.3 20C0.6 20 0 19.4 0 18.7L0 16.3 0 15 0 12.5 0 11.3 0 8.7 0 7.5 0 5 0 3.7 0 1.3C0 0.6 0.6 0 1.3 0L3.8 0 5 0 15 0 16.3 0 18.8 0C19.4 0 20 0.6 20 1.3L20 3.7 20 5 20 7.5 20 8.7 20 11.3 20 12.5 20 15 20 16.3 20 18.7C20 19.4 19.4 20 18.8 20L18.8 20ZM5 12.5L5 15 5 16.3 5 18.7 15 18.7 15 16.3 15 15 15 12.5 15 11.3 5 11.3 5 12.5 5 12.5ZM1.2 18.1C1.2 18.5 1.5 18.7 1.9 18.7L3.7 18.7 3.7 16.3 1.2 16.3 1.2 18.1 1.2 18.1ZM1.2 15L3.7 15 3.7 12.5 1.2 12.5 1.2 15 1.2 15ZM3.8 1.3L1.9 1.3C1.5 1.3 1.3 1.5 1.3 1.9L1.3 3.7 3.8 3.7 3.8 1.3 3.8 1.3ZM3.8 5L1.3 5 1.3 7.5 3.8 7.5 3.8 5 3.8 5ZM3.8 8.7L1.3 8.7 1.3 11.3 3.8 11.3 3.8 10 3.8 8.7 3.8 8.7ZM15 7.5L15 5 15 3.7 15 1.3 5 1.3 5 3.7 5 5 5 7.5 5 8.7 5 10 15 10 15 8.7 15 7.5 15 7.5ZM18.8 1.9C18.8 1.5 18.5 1.3 18.1 1.3L16.3 1.3 16.3 3.7 18.8 3.7 18.8 1.9 18.8 1.9ZM18.8 5L16.3 5 16.3 7.5 18.8 7.5 18.8 5 18.8 5ZM18.8 8.7L16.3 8.7 16.3 10 16.3 11.3 18.8 11.3 18.8 8.7 18.8 8.7ZM18.8 12.5L16.3 12.5 16.3 15 18.8 15 18.8 12.5 18.8 12.5ZM18.8 16.3L16.3 16.3 16.3 18.7 18.1 18.7C18.5 18.7 18.8 18.5 18.8 18.1L18.8 16.3 18.8 16.3Z"/>
</svg>